<svg width="28" height="29" viewBox="0 0 28 29" fill="none" xmlns="http://www.w3.org/2000/svg">
<g clip-path="url(#clip0_351_223)">
<g filter="url(#filter0_i_351_223)">
<mask id="mask0_351_223" style="mask-type:alpha" maskUnits="userSpaceOnUse" x="0" y="0" width="28" height="29">
<path d="M14 28.5811C21.732 28.5811 28 22.313 28 14.5811C28 6.84907 21.732 0.581055 14 0.581055C6.26801 0.581055 0 6.84907 0 14.5811C0 22.313 6.26801 28.5811 14 28.5811Z" fill="#C4C4C4"/>
</mask>
<g mask="url(#mask0_351_223)">
<path d="M11.6943 8.86448C17.6421 6.46142 20.5157 -0.308287 18.1126 -6.25608C15.7096 -12.2039 8.93987 -15.0774 2.99208 -12.6744C-2.95571 -10.2713 -5.82928 -3.50161 -3.42621 2.44618C-1.02315 8.39397 5.74655 11.2675 11.6943 8.86448Z" fill="#9F9F9F"/>
<path d="M25.0147 41.8362C30.9624 39.4331 33.836 32.6634 31.433 26.7156C29.0299 20.7678 22.2602 17.8942 16.3124 20.2973C10.3646 22.7004 7.49104 29.4701 9.8941 35.4179C12.2972 41.3657 19.0669 44.2392 25.0147 41.8362Z" fill="#9F9F9F"/>
<path d="M1.87012 32.011C7.81791 29.6079 10.6915 22.8382 8.28842 16.8904C5.88536 10.9426 -0.884347 8.06905 -6.83214 10.4721C-12.7799 12.8752 -15.6535 19.6449 -13.2504 25.5927C-10.8474 31.5405 -4.07767 34.414 1.87012 32.011Z" fill="#9F9F9F"/>
<path d="M34.5342 17.9338C40.482 15.5308 43.3555 8.76105 40.9525 2.81326C38.5494 -3.13453 31.7797 -6.0081 25.8319 -3.60504C19.8841 -1.20197 17.0106 5.56773 19.4136 11.5155C21.8167 17.4633 28.5864 20.3369 34.5342 17.9338Z" fill="#9F9F9F"/>
</g>
</g>
</g>
<defs>
<filter id="filter0_i_351_223" x="0" y="0.581055" width="28" height="29" filterUnits="userSpaceOnUse" color-interpolation-filters="sRGB">
<feFlood flood-opacity="0" result="BackgroundImageFix"/>
<feBlend mode="normal" in="SourceGraphic" in2="BackgroundImageFix" result="shape"/>
<feColorMatrix in="SourceAlpha" type="matrix" values="0 0 0 0 0 0 0 0 0 0 0 0 0 0 0 0 0 0 127 0" result="hardAlpha"/>
<feOffset dy="1"/>
<feGaussianBlur stdDeviation="0.5"/>
<feComposite in2="hardAlpha" operator="arithmetic" k2="-1" k3="1"/>
<feColorMatrix type="matrix" values="0 0 0 0 0 0 0 0 0 0 0 0 0 0 0 0 0 0 0.15 0"/>
<feBlend mode="normal" in2="shape" result="effect1_innerShadow_351_223"/>
</filter>
<clipPath id="clip0_351_223">
<rect width="28" height="29" fill="white"/>
</clipPath>
</defs>
</svg>
