<svg width="37" height="25" viewBox="0 0 37 25" fill="none" xmlns="http://www.w3.org/2000/svg">
<g clip-path="url(#clip0_351_246)">
<g filter="url(#filter0_i_351_246)">
<path d="M25.0486 19.8252H9.5V24.5808H25.0486V19.8252Z" fill="#9F9F9F"/>
<path d="M9.5005 24.5801C14.7475 24.5801 19.001 20.3266 19.001 15.0796C19.001 9.83262 14.7475 5.5791 9.5005 5.5791C4.25352 5.5791 0 9.83262 0 15.0796C0 20.3266 4.25352 24.5801 9.5005 24.5801Z" fill="#9F9F9F"/>
<path d="M24.2499 24.5809C30.8773 24.5809 36.2498 19.2083 36.2498 12.581C36.2498 5.95359 30.8773 0.581055 24.2499 0.581055C17.6225 0.581055 12.25 5.95359 12.25 12.581C12.25 19.2083 17.6225 24.5809 24.2499 24.5809Z" fill="#9F9F9F"/>
</g>
</g>
<defs>
<filter id="filter0_i_351_246" x="0" y="0.581055" width="36.25" height="25" filterUnits="userSpaceOnUse" color-interpolation-filters="sRGB">
<feFlood flood-opacity="0" result="BackgroundImageFix"/>
<feBlend mode="normal" in="SourceGraphic" in2="BackgroundImageFix" result="shape"/>
<feColorMatrix in="SourceAlpha" type="matrix" values="0 0 0 0 0 0 0 0 0 0 0 0 0 0 0 0 0 0 127 0" result="hardAlpha"/>
<feOffset dy="1"/>
<feGaussianBlur stdDeviation="0.5"/>
<feComposite in2="hardAlpha" operator="arithmetic" k2="-1" k3="1"/>
<feColorMatrix type="matrix" values="0 0 0 0 0 0 0 0 0 0 0 0 0 0 0 0 0 0 0.15 0"/>
<feBlend mode="normal" in2="shape" result="effect1_innerShadow_351_246"/>
</filter>
<clipPath id="clip0_351_246">
<rect width="37" height="25" fill="white"/>
</clipPath>
</defs>
</svg>
