<svg width="28" height="28" viewBox="0 0 28 28" fill="none" xmlns="http://www.w3.org/2000/svg">
<g clip-path="url(#clip0_351_238)">
<g filter="url(#filter0_i_351_238)">
<path opacity="0.8" d="M2.5 2.20625C2.5 1.51471 3.0606 0.954102 3.75214 0.954102H7.73734C8.42888 0.954102 8.98949 1.51471 8.98949 2.20625V11.102H2.5V2.20625Z" fill="#9F9F9F"/>
<path d="M3.20707 26.2085H24.7929C25.1834 26.2085 25.5 25.8919 25.5 25.5014V12.7072C25.5 12.498 25.4074 12.2996 25.247 12.1652L14.4541 3.12213C14.1914 2.902 13.8086 2.902 13.5459 3.12213L2.75296 12.1652C2.59262 12.2996 2.5 12.498 2.5 12.7072V25.5014C2.5 25.8919 2.81657 26.2085 3.20707 26.2085Z" fill="#9F9F9F" stroke="#9F9F9F" stroke-width="3.4434" stroke-linecap="round"/>
</g>
</g>
<defs>
<filter id="filter0_i_351_238" x="0.777344" y="0.954102" width="26.4453" height="27.9766" filterUnits="userSpaceOnUse" color-interpolation-filters="sRGB">
<feFlood flood-opacity="0" result="BackgroundImageFix"/>
<feBlend mode="normal" in="SourceGraphic" in2="BackgroundImageFix" result="shape"/>
<feColorMatrix in="SourceAlpha" type="matrix" values="0 0 0 0 0 0 0 0 0 0 0 0 0 0 0 0 0 0 127 0" result="hardAlpha"/>
<feOffset dy="1"/>
<feGaussianBlur stdDeviation="0.5"/>
<feComposite in2="hardAlpha" operator="arithmetic" k2="-1" k3="1"/>
<feColorMatrix type="matrix" values="0 0 0 0 0 0 0 0 0 0 0 0 0 0 0 0 0 0 0.15 0"/>
<feBlend mode="normal" in2="shape" result="effect1_innerShadow_351_238"/>
</filter>
<clipPath id="clip0_351_238">
<rect width="28" height="28" fill="white"/>
</clipPath>
</defs>
</svg>
