<svg width="24" height="34" viewBox="0 0 24 34" fill="none" xmlns="http://www.w3.org/2000/svg">
<g clip-path="url(#clip0_351_242)">
<g filter="url(#filter0_i_351_242)">
<path d="M0 11.0643C0 10.3609 0.373282 9.71031 0.980544 9.35536L13.015 2.32133C14.3345 1.55006 15.9932 2.50178 15.9932 4.0302V14.6454L8.0815 9.92849V33.3395H1.97937C0.886194 33.3395 0 32.4533 0 31.3601V11.0643Z" fill="#9F9F9F"/>
<path d="M16 14.6631L23.0652 18.9992C23.6517 19.3592 24.0092 19.998 24.0092 20.6862V31.3635C24.0092 32.4566 23.123 33.3428 22.0298 33.3428H17.9793C16.8862 33.3428 16 32.4566 16 31.3635V14.6631Z" fill="#9F9F9F"/>
</g>
</g>
<defs>
<filter id="filter0_i_351_242" x="0" y="2.04785" width="24.0098" height="32.2949" filterUnits="userSpaceOnUse" color-interpolation-filters="sRGB">
<feFlood flood-opacity="0" result="BackgroundImageFix"/>
<feBlend mode="normal" in="SourceGraphic" in2="BackgroundImageFix" result="shape"/>
<feColorMatrix in="SourceAlpha" type="matrix" values="0 0 0 0 0 0 0 0 0 0 0 0 0 0 0 0 0 0 127 0" result="hardAlpha"/>
<feOffset dy="1"/>
<feGaussianBlur stdDeviation="0.5"/>
<feComposite in2="hardAlpha" operator="arithmetic" k2="-1" k3="1"/>
<feColorMatrix type="matrix" values="0 0 0 0 0 0 0 0 0 0 0 0 0 0 0 0 0 0 0.15 0"/>
<feBlend mode="normal" in2="shape" result="effect1_innerShadow_351_242"/>
</filter>
<clipPath id="clip0_351_242">
<rect width="24" height="34" fill="white"/>
</clipPath>
</defs>
</svg>
